<?xml version="1.0" encoding="iso-8859-1"?>
<!-- Uploaded to: SVG Repo, www.svgrepo.com, Generator: SVG Repo Mixer Tools -->
<svg fill="#000000" height="800px" width="800px" version="1.1" id="Layer_1" xmlns="http://www.w3.org/2000/svg" xmlns:xlink="http://www.w3.org/1999/xlink" 
	 viewBox="0 0 512.672 512.672" xml:space="preserve">
<g>
	<g>
		<path d="M510.36,284.226l-47.04-163.307c-7.253-22.187-26.667-37.76-50.773-40.427c-24.427-2.773-47.147,8.32-59.413,28.8
			l-9.707,16.213c-2.987,5.013-1.387,11.627,3.733,14.613c5.013,2.987,11.627,1.387,14.613-3.733l9.707-16.213
			c9.493-15.787,26.133-19.947,38.72-18.56c12.267,1.387,27.307,8.853,32.747,25.493l42.453,146.88
			c-62.4-18.24-128.96-15.893-189.867,6.507c-4.693,1.707-7.573,6.4-6.933,11.413l2.987,23.147h-70.293l2.987-23.147
			c0.64-4.907-2.24-9.707-6.933-11.413c-60.907-22.4-127.467-24.747-189.867-6.507l42.347-146.56
			c5.547-16.96,20.587-24.427,32.747-25.813c12.48-1.387,29.333,2.773,38.72,18.56L151,136.386c2.987,5.013,9.6,6.72,14.613,3.733
			s6.72-9.6,3.733-14.613l-9.707-16.213c-12.267-20.48-35.093-31.467-59.413-28.8c-24,2.667-43.52,18.133-50.88,40.747
			L2.306,284.226c-1.707,2.24-2.56,5.013-2.24,7.787l0.107,1.067c-0.107,1.387,0.107,2.667,0.533,3.947l4.267,33.387
			c7.467,58.24,53.547,102.187,107.093,102.187c51.733,0,96.32-40.96,106.133-96.107h76.267
			c9.813,55.147,54.4,96.107,106.133,96.107c53.547,0,99.627-43.947,107.093-102.187l4.267-33.387
			c0.427-1.173,0.64-2.56,0.533-3.947l0.107-1.067C512.92,289.239,512.173,286.466,510.36,284.226z M198.146,327.746
			c-6.08,47.573-42.987,83.413-85.76,83.413s-79.68-35.84-85.76-83.413l-3.84-29.867c58.133-19.52,121.173-19.52,179.307,0
			L198.146,327.746z M486.146,327.746c-6.187,47.573-42.987,83.413-85.76,83.413s-79.68-35.84-85.76-83.413l-3.84-29.867
			c58.133-19.52,121.173-19.52,179.307,0L486.146,327.746z"/>
	</g>
</g>
</svg>