<svg width="152" height="23" viewBox="0 0 152 23" fill="none" xmlns="http://www.w3.org/2000/svg">
<path d="M149.051 18.9271V4.76025H151.135V18.9271H149.051Z" fill="white"/>
<path d="M142.286 19.2105C141.288 19.2105 140.397 19.0081 139.615 18.6034C138.846 18.1851 138.238 17.5914 137.793 16.8224C137.348 16.0533 137.125 15.1426 137.125 14.0902V13.7866C137.125 12.7342 137.348 11.8302 137.793 11.0747C138.238 10.3056 138.846 9.71195 139.615 9.29369C140.397 8.87543 141.288 8.6663 142.286 8.6663C143.285 8.6663 144.175 8.87543 144.958 9.29369C145.74 9.71195 146.354 10.3056 146.799 11.0747C147.245 11.8302 147.467 12.7342 147.467 13.7866V14.0902C147.467 15.1426 147.245 16.0533 146.799 16.8224C146.354 17.5914 145.74 18.1851 144.958 18.6034C144.175 19.0081 143.285 19.2105 142.286 19.2105ZM142.286 17.3486C143.204 17.3486 143.946 17.0585 144.512 16.4783C145.093 15.8847 145.383 15.0684 145.383 14.0295V13.8473C145.383 12.8084 145.099 11.9989 144.533 11.4187C143.966 10.8251 143.217 10.5282 142.286 10.5282C141.382 10.5282 140.64 10.8251 140.06 11.4187C139.493 11.9989 139.21 12.8084 139.21 13.8473V14.0295C139.21 15.0684 139.493 15.8847 140.06 16.4783C140.64 17.0585 141.382 17.3486 142.286 17.3486Z" fill="white"/>
<path d="M131.281 19.2105C130.323 19.2105 129.453 19.0081 128.67 18.6034C127.901 18.1986 127.287 17.6117 126.828 16.8426C126.383 16.0736 126.161 15.1493 126.161 14.0699V13.8068C126.161 12.7275 126.383 11.81 126.828 11.0544C127.287 10.2854 127.901 9.69845 128.67 9.29369C129.453 8.87543 130.323 8.6663 131.281 8.6663C132.239 8.6663 133.055 8.84169 133.73 9.19249C134.404 9.54329 134.944 10.0088 135.349 10.5889C135.767 11.1691 136.037 11.81 136.158 12.5116L134.135 12.9366C134.067 12.4914 133.925 12.0866 133.71 11.7223C133.494 11.358 133.19 11.0679 132.799 10.852C132.408 10.6362 131.915 10.5282 131.321 10.5282C130.741 10.5282 130.215 10.6632 129.743 10.933C129.284 11.1894 128.92 11.5671 128.65 12.0663C128.38 12.5521 128.245 13.1457 128.245 13.8473V14.0295C128.245 14.7311 128.38 15.3315 128.65 15.8307C128.92 16.3299 129.284 16.7077 129.743 16.964C130.215 17.2204 130.741 17.3486 131.321 17.3486C132.198 17.3486 132.866 17.1259 133.325 16.6807C133.784 16.222 134.074 15.6418 134.195 14.9402L136.219 15.4057C136.057 16.0938 135.767 16.7279 135.349 17.3081C134.944 17.8883 134.404 18.3537 133.73 18.7045C133.055 19.0418 132.239 19.2105 131.281 19.2105Z" fill="white"/>
<path d="M119.882 19.2105C118.883 19.2105 117.993 19.0081 117.21 18.6034C116.441 18.1851 115.834 17.5914 115.389 16.8224C114.943 16.0533 114.721 15.1426 114.721 14.0902V13.7866C114.721 12.7342 114.943 11.8302 115.389 11.0747C115.834 10.3056 116.441 9.71195 117.21 9.29369C117.993 8.87543 118.883 8.6663 119.882 8.6663C120.88 8.6663 121.771 8.87543 122.553 9.29369C123.336 9.71195 123.95 10.3056 124.395 11.0747C124.84 11.8302 125.063 12.7342 125.063 13.7866V14.0902C125.063 15.1426 124.84 16.0533 124.395 16.8224C123.95 17.5914 123.336 18.1851 122.553 18.6034C121.771 19.0081 120.88 19.2105 119.882 19.2105ZM119.882 17.3486C120.799 17.3486 121.541 17.0585 122.108 16.4783C122.688 15.8847 122.978 15.0684 122.978 14.0295V13.8473C122.978 12.8084 122.695 11.9989 122.128 11.4187C121.561 10.8251 120.813 10.5282 119.882 10.5282C118.978 10.5282 118.236 10.8251 117.655 11.4187C117.089 11.9989 116.805 12.8084 116.805 13.8473V14.0295C116.805 15.0684 117.089 15.8847 117.655 16.4783C118.236 17.0585 118.978 17.3486 119.882 17.3486Z" fill="white"/>
<path d="M111.049 18.9272C110.442 18.9272 109.956 18.745 109.592 18.3807C109.241 18.0164 109.066 17.5307 109.066 16.9236V10.7104H106.313V8.94963H109.066V5.65077H111.15V8.94963H114.125V10.7104H111.15V16.5593C111.15 16.964 111.339 17.1664 111.717 17.1664H113.801V18.9272H111.049Z" fill="white"/>
<path d="M100.916 19.2105C99.9174 19.2105 99.027 19.0081 98.2444 18.6034C97.4753 18.1851 96.8682 17.5914 96.423 16.8224C95.9777 16.0533 95.7551 15.1426 95.7551 14.0902V13.7866C95.7551 12.7342 95.9777 11.8302 96.423 11.0747C96.8682 10.3056 97.4753 9.71195 98.2444 9.29369C99.027 8.87543 99.9174 8.6663 100.916 8.6663C101.914 8.6663 102.805 8.87543 103.587 9.29369C104.37 9.71195 104.984 10.3056 105.429 11.0747C105.874 11.8302 106.097 12.7342 106.097 13.7866V14.0902C106.097 15.1426 105.874 16.0533 105.429 16.8224C104.984 17.5914 104.37 18.1851 103.587 18.6034C102.805 19.0081 101.914 19.2105 100.916 19.2105ZM100.916 17.3486C101.833 17.3486 102.575 17.0585 103.142 16.4783C103.722 15.8847 104.012 15.0684 104.012 14.0295V13.8473C104.012 12.8084 103.729 11.9989 103.162 11.4187C102.596 10.8251 101.847 10.5282 100.916 10.5282C100.012 10.5282 99.2698 10.8251 98.6897 11.4187C98.123 11.9989 97.8396 12.8084 97.8396 13.8473V14.0295C97.8396 15.0684 98.123 15.8847 98.6897 16.4783C99.2698 17.0585 100.012 17.3486 100.916 17.3486Z" fill="white"/>
<path d="M89.7819 18.9271V8.94959H91.826V10.1234H92.1498C92.3117 9.70516 92.5681 9.40158 92.9189 9.21269C93.2831 9.01031 93.7284 8.90911 94.2546 8.90911H95.4487V10.7913H94.1736C93.499 10.7913 92.9458 10.9802 92.5141 11.358C92.0823 11.7223 91.8665 12.2889 91.8665 13.058V18.9271H89.7819Z" fill="white"/>
<path d="M77.8289 22.9748V8.94963H79.8729V10.3866H80.1968C80.4531 9.94132 80.8376 9.54329 81.3503 9.19249C81.8765 8.84169 82.6254 8.6663 83.5968 8.6663C84.4333 8.6663 85.1956 8.86868 85.8838 9.27345C86.5853 9.67822 87.1453 10.2651 87.5635 11.0342C87.9953 11.7898 88.2112 12.7072 88.2112 13.7866V14.0902C88.2112 15.1696 88.002 16.0938 87.5838 16.8628C87.1655 17.6184 86.6056 18.1986 85.904 18.6034C85.2024 19.0081 84.4333 19.2105 83.5968 19.2105C82.9492 19.2105 82.4027 19.1295 81.9575 18.9676C81.5123 18.8057 81.1547 18.6034 80.8849 18.3605C80.615 18.1041 80.3991 17.841 80.2372 17.5712H79.9134V22.9748H77.8289ZM82.9897 17.389C83.9071 17.389 84.656 17.099 85.2361 16.5188C85.8163 15.9386 86.1064 15.1089 86.1064 14.0295V13.8473C86.1064 12.7814 85.8095 11.9584 85.2159 11.3782C84.6357 10.7981 83.8936 10.508 82.9897 10.508C82.0992 10.508 81.3571 10.7981 80.7634 11.3782C80.1833 11.9584 79.8932 12.7814 79.8932 13.8473V14.0295C79.8932 15.1089 80.1833 15.9386 80.7634 16.5188C81.3571 17.099 82.0992 17.389 82.9897 17.389Z" fill="white"/>
<path d="M68.9665 18.9272C68.3594 18.9272 67.8736 18.745 67.5093 18.3807C67.1585 18.0164 66.9831 17.5307 66.9831 16.9236V10.7104H64.2307V8.94963H66.9831V5.65077H69.0677V8.94963H72.0427V10.7104H69.0677V16.5593C69.0677 16.964 69.2566 17.1664 69.6344 17.1664H71.7189V18.9272H68.9665Z" fill="white"/>
<path d="M53.8572 18.9272V8.94965H55.9013V10.4473H56.2251C56.414 10.0425 56.7513 9.66474 57.237 9.31395C57.7228 8.96315 58.4446 8.78775 59.4025 8.78775C60.1581 8.78775 60.826 8.9564 61.4061 9.29371C61.9998 9.63101 62.4653 10.11 62.8026 10.7306C63.1399 11.3378 63.3085 12.0731 63.3085 12.9366V18.9272H61.224V13.0985C61.224 12.235 61.0081 11.6009 60.5764 11.1961C60.1446 10.7779 59.551 10.5687 58.7954 10.5687C57.9319 10.5687 57.237 10.8521 56.7108 11.4187C56.1981 11.9854 55.9418 12.8084 55.9418 13.8878V18.9272H53.8572Z" fill="white"/>
<path d="M47.4218 19.2105C46.4099 19.2105 45.5261 19.0014 44.7706 18.5831C44.015 18.1514 43.4214 17.551 42.9896 16.7819C42.5713 15.9993 42.3622 15.0954 42.3622 14.0699V13.8271C42.3622 12.7882 42.5713 11.8842 42.9896 11.1151C43.4079 10.3326 43.988 9.73218 44.7301 9.31392C45.4857 8.88217 46.3559 8.6663 47.3409 8.6663C48.2988 8.6663 49.1353 8.88217 49.8504 9.31392C50.579 9.73218 51.1457 10.3191 51.5504 11.0747C51.9552 11.8302 52.1576 12.714 52.1576 13.7259V14.5152H44.4872C44.5142 15.3922 44.8043 16.0938 45.3575 16.62C45.9242 17.1327 46.6258 17.389 47.4623 17.389C48.2448 17.389 48.8318 17.2136 49.223 16.8628C49.6278 16.512 49.9381 16.1073 50.154 15.6485L51.8743 16.539C51.6854 16.9168 51.4088 17.3148 51.0445 17.7331C50.6937 18.1514 50.2282 18.5022 49.648 18.7855C49.0679 19.0688 48.3258 19.2105 47.4218 19.2105ZM44.5075 12.9164H50.0326C49.9786 12.1608 49.7087 11.5739 49.223 11.1556C48.7373 10.7239 48.1032 10.508 47.3206 10.508C46.5381 10.508 45.8972 10.7239 45.398 11.1556C44.9122 11.5739 44.6154 12.1608 44.5075 12.9164Z" fill="white"/>
<path d="M38.4795 18.9271V4.76025H40.564V18.9271H38.4795Z" fill="white"/>
<path d="M30.7048 19.2105C29.9897 19.2105 29.3488 19.0891 28.7822 18.8462C28.229 18.6034 27.7837 18.2458 27.4464 17.7736C27.1226 17.3013 26.9607 16.7279 26.9607 16.0533C26.9607 15.3652 27.1226 14.7985 27.4464 14.3533C27.7837 13.8945 28.2357 13.5505 28.8024 13.3211C29.3826 13.0918 30.0369 12.9771 30.7655 12.9771H33.8013V12.3294C33.8013 11.7493 33.6259 11.2838 33.2751 10.933C32.9243 10.5822 32.3846 10.4068 31.656 10.4068C30.9409 10.4068 30.3945 10.5755 30.0167 10.9128C29.6389 11.2501 29.3893 11.6886 29.2679 12.2283L27.325 11.6009C27.4869 11.0612 27.7433 10.5755 28.094 10.1437C28.4583 9.69845 28.9373 9.34091 29.531 9.07106C30.1246 8.80122 30.8397 8.6663 31.6762 8.6663C32.9715 8.6663 33.9902 8.99686 34.7322 9.65798C35.4743 10.3191 35.8454 11.2568 35.8454 12.4711V16.5795C35.8454 16.9843 36.0342 17.1867 36.412 17.1867H37.262V18.9272H35.7037C35.2315 18.9272 34.8469 18.8057 34.5501 18.5629C34.2533 18.32 34.1049 17.9895 34.1049 17.5712V17.5105H33.8013C33.6933 17.7129 33.5314 17.949 33.3156 18.2188C33.0997 18.4887 32.7826 18.7248 32.3644 18.9272C31.9461 19.1161 31.3929 19.2105 30.7048 19.2105ZM31.0084 17.4902C31.8449 17.4902 32.5195 17.2541 33.0322 16.7819C33.5449 16.2962 33.8013 15.6351 33.8013 14.7985V14.5961H30.8869C30.3338 14.5961 29.8885 14.7176 29.5512 14.9604C29.2139 15.1898 29.0453 15.5339 29.0453 15.9926C29.0453 16.4513 29.2207 16.8156 29.5715 17.0855C29.9223 17.3553 30.4012 17.4902 31.0084 17.4902Z" fill="white"/>
<path d="M22.9125 18.9272C22.3054 18.9272 21.8197 18.745 21.4554 18.3807C21.1046 18.0164 20.9292 17.5307 20.9292 16.9236V10.7104H18.1768V8.94963H20.9292V5.65077H23.0137V8.94963H25.9888V10.7104H23.0137V16.5593C23.0137 16.964 23.2026 17.1664 23.5804 17.1664H25.665V18.9272H22.9125Z" fill="white"/>
<path d="M0.683 8.35654C1.04835 8.72081 1.53548 8.90295 2.14439 8.90295L8.37204 8.90295L7.67065 6.89944H2.71271C2.33383 6.89944 2.14439 6.69706 2.14439 6.29231L2.14439 1.36333L0.155274 0.686523L0.155273 6.89944C0.155273 7.50656 0.331184 7.99226 0.683 8.35654Z" fill="white"/>
<path d="M0.683 18.3734C1.04835 18.7376 1.53548 18.9198 2.14439 18.9198H8.37204L7.67065 16.9162H2.71271C2.33383 16.9162 2.14439 16.7139 2.14439 16.3091L2.14439 11.3801L0.155274 10.7033L0.155273 16.9162C0.155273 17.5234 0.331184 18.0091 0.683 18.3734Z" fill="white"/>
</svg>
